<?xml version="1.0" encoding="utf-8"?>
<!-- Generator: Adobe Illustrator 24.0.2, SVG Export Plug-In . SVG Version: 6.00 Build 0)  -->
<svg version="1.1" id="Capa_1" xmlns="http://www.w3.org/2000/svg" xmlns:xlink="http://www.w3.org/1999/xlink" x="0px" y="0px"
	 viewBox="0 0 595.3 841.9" style="enable-background:new 0 0 595.3 841.9;" xml:space="preserve">
<style type="text/css">
	.st0{fill:#F9F2F2;stroke:#501848;stroke-width:2;stroke-miterlimit:10;}
</style>
<g>
	<g>
		<polygon class="st0" points="36.2,414.9 33.9,418.3 37.1,415.6 		"/>
		<path class="st0" d="M29.2,403.7c-1.2-4.3-3-2.8-3-2.8l-4.7,2.9l14.7,11.1l1.7-2.5C37.9,412.3,30.4,408,29.2,403.7z"/>
		<path class="st0" d="M19.1,403l-4.8,1.3c1.4,3,1.1,14.4,1.1,14.4l-0.5,16.8v11.9c0,0-1.5,1.8-0.6,3.8s2.9,1.9,4.6,1.8
			s5.6,0.1,5.6,0.1l-0.9,0.6c0,0,0.8,1.3,3.3,1.4s3-2.8,3-2.8l17.5-18.8c0,0,2.3-0.2,1.6-3.4c-0.6-3.2,4-7.1-2.3-2.4
			s-5.5,3.8-5.5,3.8l-3.2-4.8c0,0-0.5,0.7-1.2,2.1c-0.6,1.3-1.8,1.8-3.1,2.1c-0.1,0.1-0.1,0.2-0.2,0.3c-1.2,1.4-2.9,2.2-4.1,3.5
			c-0.2,0.2-0.4,0.3-0.5,0.3c-0.1,0.6-0.4,1.1-0.8,1.7c-0.4,0.5-1,0.9-1.7,0.7c-0.6-0.2-1.1-0.8-1.1-1.5c0-1.4,0.5-2.7,0.6-4
			c0.1-1.4,0.1-2.8,0.1-4.2c0-3-0.1-5.9,0.3-8.9c0.2-1.4-6.1-8.8-6.1-8.8s-1,2.5-0.7,0s-0.6-4.8-0.6-4.8l2-1.2l0.6-0.4
			C21.5,403.8,21.5,403.8,19.1,403z"/>
		<path class="st0" d="M48.2,422.5c-3.1,0.6-9.5-8.4-9.8-9.6c0.1,0.5,0.4,1.2,0.4,1.2l-1.6,1.4l13.1,9.9
			C50.1,425.4,51.3,421.9,48.2,422.5z"/>
		<path class="st0" d="M25.9,432v-14.7l-0.5,17.8C25.5,434.1,25.8,433.1,25.9,432z"/>
		<path class="st0" d="M25.3,436.4L24.8,453h1.1v-15.7C25.6,437.1,25.4,436.8,25.3,436.4z"/>
		<line class="st0" x1="15" y1="434.6" x2="24.5" y2="435.6"/>
		<line class="st0" x1="14.7" y1="418.7" x2="24.5" y2="419.3"/>
		<path class="st0" d="M29,435.9c0.8-0.8,1.6-1.6,2.5-2.4"/>
		<path class="st0" d="M30.3,434.6c6.4,7,5.5,6.3,5.5,6.3"/>
		<polyline class="st0" points="59.4,401.5 62.8,403.8 71.9,404.3 71.9,411.5 		"/>
		<path class="st0" d="M58.5,401.5l-3.1,5.3l1.3,7l14.5,0.9c0.3-0.1,0.6-0.1,1-0.1c0.6,0,1.2,0.1,1.7,0.3l0,0l8.5,0.6l2.3-1.2
			l1.9-9.6L58.5,401.5z"/>
		<path class="st0" d="M63.3,440.5c-0.6-0.6-0.6-1.7,0-2.3c0.2-1.7,0.6-2.6,0.6-2.6l0.8-5.5c0,0-0.1-3.1,0-5.3
			c0.1-2.2,0.4-4.9,0.7-5.5c0.4-0.6,0.6-4.9,0.6-4.9l-10.2-1c-0.5,2.7-0.8,4.5-0.9,5.9c-0.1,3.2,0.5,3.2,0.5,3.2l-2.5,10l-0.7,8.4
			l-2.5,4.2c0,0,2.1,5.4,2.6,5.3c-0.3,0.1-1,0.7,4.1,0c6.5-0.9,7.2-2,7.2-2s0.8-1.2,0-5.8C63.4,441.8,63.4,441.2,63.3,440.5z"/>
		<line class="st0" x1="62.4" y1="420" x2="55.4" y2="420"/>
		<line class="st0" x1="61.4" y1="434" x2="53.4" y2="434"/>
		<path class="st0" d="M79.3,431.5l-1.7-10l0.1-6.1l-1.1,2.1c0.3,0.8,0.4,1.6,0.4,2.4c0,0.3,0,0.7-0.1,1c0,0,0,0,0,0.1
			c0.5,1,0.7,2.2,0.5,3.3c0.7,3.3,1.6,6.6,1.9,9.9c0.6,0.5,0.7,1.6,0.1,2.2c0,0.3,0,0.5,0,0.7c0.1,0,0.1,0,0.2,0
			c0.2,0,0.4,0,0.6,0.1L79.3,431.5z"/>
		<line class="st0" x1="86.6" y1="420.3" x2="77.6" y2="420.9"/>
		<line class="st0" x1="88.4" y1="435" x2="80.4" y2="435"/>
		<path class="st0" d="M86,439.2l-4.6,1.7c-0.1,0.7-0.6,1.3-1.4,1.3c-0.4,0-0.8-0.2-1-0.4l-25,9c0,0,0.1,3.1,3,4.4s3-2.1,3-2.1
			l17.7-1.3l10.8-0.5l1.1-6L86,439.2z"/>
		<path class="st0" d="M80.3,436.9l-1.8,3.7l-8.3,0.8l-7.4-1.8l0.9,4.2l-0.2,3.5l0.3,0.7l3.5,0.9h4.3c0.2-2.1,0.3-4.1,0.5-6.2"/>
		<polyline class="st0" points="87.6,405.5 85.9,404.7 73.8,405.5 71.7,404.3 		"/>
		<polyline class="st0" points="87.9,405.5 87.9,412.9 88.7,415.5 89.8,430.1 90.9,439.2 90.9,445.9 88.7,449.9 		"/>
		<path class="st0" d="M98.9,405.5l1.4,10l-1.4,3.8v8.1l0.7,6.2l-0.7,11l-1.4,5.3c5.5,3.7,1,4.9,5.5,3.7s7-2.9,7-2.9s2.2,2.3,0-3.4
			s1-22,1-22v-15.6l-1.7-7l-7.8,0.5c0,0,2-2.3-0.3,0s-2.4,2.1-2.4,2.1"/>
		<line class="st0" x1="107.4" y1="435" x2="99.4" y2="435"/>
		<polyline class="st0" points="114.6,418.9 110.7,420.6 114.6,419.5 		"/>
		<path class="st0" d="M121.6,432.9l-8.2,4.1l-3.2-9.7l-0.7,7.6l-0.5,5.2c0,0-0.3,2.4,0,3.4s0.9,3.8,0.9,3.8l0.3,2.6
			c0,0-0.9,2-2.2,1.9c-1.3-0.1-3.1,0.5-3.9,0.6s-3.2,0-3.2,0l-1.5-0.9l-1.9-1.6c0,0-0.5-2.6,0-3.5s2.4-4.7,2.4-5
			c0-0.4-0.3-7.8-0.3-7.8l-0.2-3.6v-3.6l-0.5-4c0,0-0.6-2.6-0.5-3.5l8,0.6"/>
		<path class="st0" d="M113.7,437.1c0,0,4.7,11.6,4.1,7l1,7.6c0,0,2.9,2.1,5.1,1.1s5.9-2.8,5.9-2.8s1.6-3.1,0.4-4.9
			c-1.2-1.8-4.9-7.3-4.9-7.3l-0.2-5.5l-1.9-2.8l-2-3l-2.8-7.2l-3-5.8l-2.5-4.7v-3.3l-3.8-1.7"/>
		<path class="st0" d="M123.1,430.2l2.4,4l-0.4,3.9l3.6,5.6l1.4,3.8l-1.7,3.2l-4.7,1l0.7,0.7l0.3,0.6c0,0,2.2-0.2,3.7,0.4
			c1.5,0.5,3.2-0.7,5.2-1.3s1.5-2.2,1.5-2.2l-1.2-4c0,0-0.3-10.5-0.4-10.8s-1.1-5.1-1.1-5.6s1.4-5.8,1.4-6.7s-0.3-5.7-0.3-5.7
			s0.7-6.3,1.4-9.2s-2.7-4.2-2.7-4.2s-3.2,0-5-0.4c-1.8-0.5-4.4,1.5-4.4,1.5l0.8,12.3l-0.8,11.2"/>
		<line class="st0" x1="131.2" y1="418.9" x2="123.7" y2="419.5"/>
		<line class="st0" x1="131.4" y1="435" x2="126.4" y2="435"/>
		<path class="st0" d="M168.9,415.5V448c0,0,2,2.4,0.9,4.1c-1,1.7-3.7,2.9-7.4,2.7c-3.6-0.2-5.8-0.8-5.8-4.4s1.2-4.6,1.2-4.6v-11.7
			c0,0,0.2-14.8,0.2-15.3s0.4-11.9,0.4-11.9s-1.2-0.8,0.6-1s3.3-0.8,3.3-0.8s2.6-2.8,1.3-3.1c-1.3-0.4,3.5,0,3.5,0l6.5,4l4.5,0.4
			l3.7,2.4c0,0,3.4,1.6,3.8,1.6c0.4,0.1,3.9,0.1,3.9,0.1s1.2,2.3,1.2,2.7s-0.4,3.4-0.4,3.6s-1,2.5-1,2.5s-1.6,1.2-2.4,1.6
			s-3.9,0.7-3.9,0.7l-5.4-3.6l-4.7-0.7l-2-0.9c0,0-0.4-0.4-1.4-1c-1-0.5-3.2-1.5-3.2-1.5s-2-0.6-2.5-0.8s-3.1-0.5-3.1-0.5
			s-1-2.2-1-2.4c0-0.3,0-2.7,0-3s0-2.8,0-2.8l-0.3,0.1"/>
		<path class="st0" d="M165.2,419.5c0,0-5.8-0.2-6.8,0"/>
		<line class="st0" x1="166.4" y1="436" x2="158.4" y2="436"/>
		<path class="st0" d="M180.6,419.2l-2.1,3.5l-2,0.7c0,0-2.1,0.7-2.3,0.8c-0.1,0-0.3,0.1-0.5,0.2c-0.8,0.3-2.3,1-2.3,1l-2.4,3v1.1"
			/>
		<path class="st0" d="M190.5,419.5c0,0,0,0,0.8,1.8s-0.5,3.6-0.5,3.6s-2.4,1.6-4.9,1.7c-1.4,0-2.6,6-2.4,6.3
			c0.4,0.6,2.6,2.7,2.9,3.3s0.8,4,0.8,4s1.4,3.8,4.2,5.9s0.6,1.8,0.6,1.8v2.7l-1.7,2.3h-1.1c0,0-0.1,1-3,1.1s-1.7,0.6-1.7,0.6
			l-1.1-1.7l-1.5-4.7c0,0-3-1.4-3-2.6s-1.4-3.1-1.4-3.1l-0.4-2c0,0-1.5-2.6-1.6-3.2c-0.1-0.5-2-1.9-2-1.9l-1.4-2.1v-1.6l0.5-0.5
			l1.9-1.9l-0.4-4l0.9,2.5l2.3-0.9h3.4l1.4,0.9l0.5,1.5l0.6,0.4l-0.1,1.5v1.2"/>
		<line class="st0" x1="183.2" y1="438.5" x2="177.9" y2="442"/>
		<line class="st0" x1="168.7" y1="440.3" x2="173.7" y2="435.9"/>
		<polyline class="st0" points="176.4,414 175.6,414 177.1,413.3 177.9,411.4 177.9,410.2 177.9,408.2 177.9,406.8 177.9,406.5 		
			"/>
		<path class="st0" d="M205.4,403h-5.1l-2.9,1.3c0,0-1.4,1.8-1.1,3.1s-0.1,4-0.1,4s1,9.1,1.4,9.7s-0.7,4.2-0.7,4.2l0.5,8.3l-0.1,5.4
			c0,0,0.4,5,0.1,6.2c-0.2,1.2-1.3,1-1.1,4s1.1,3.1,1.1,3.1s-0.1,1.6,3.1,1.7s5.9-1.8,5.9-1.8s4,3.8,2.4-1.2s-1.9-8.5-1.9-8.5
			l1.2-5.5l-0.2-8.1c0,0-0.2-3.5-0.5-4.3c-0.1-0.2-0.1-0.5-0.2-1c-0.3-2-0.7-6.1-0.7-6.1s0.1-0.8,0.3-1.8c0.1-0.5,0.2-1,0.2-1.5
			c0.1-0.8,0.2-1.5,0.2-1.7c-0.1-0.4,0-3.2,0-3.2l1.9-3.7l-3.5-3.1l4.3,1.8l9-0.5l4.2,0.5c0,0,0.6-2,2.6,0s2,5.3,2,5.3l-1,3.6
			c0,0-0.4,2.2-2.2,1.8s-4.9-0.6-6.5-0.7s-4.1,0.4-4.7,0c-0.6-0.4-4,0.4-4.3,0s-1.8,1.8-1.8,1.8"/>
		<line class="st0" x1="214.9" y1="411.1" x2="214.4" y2="403.6"/>
		<polyline class="st0" points="204.5,419.7 198.6,420 197.4,420 		"/>
		<line class="st0" x1="205.7" y1="435.1" x2="197.3" y2="434.4"/>
		<path class="st0" d="M207.3,424.7l6.3-0.7h4.8c0,0,0.8-1,1.9,0.7s1.6,4.3,1.6,4.3v4.2c0,0,0.7,1.8-2.4,1.8s-4.6-1.1-4.6-1.1
			s-2.6-0.4-2.9-0.4s-1.8,0.4-2.3,0.4s-1.3,0-1.3,0"/>
		<path class="st0" d="M207.3,439.8l4.7,0.5c0,0,2.3-0.5,2.9,0s2,1.9,4,1.8c1.9-0.1,5.8-1.1,5.8-1.1l1.6,1.1c0,0,3.4,3.6,1.1,6.7
			s-4.1,4.7-4.7,4.3c-0.6-0.5-1-0.2-3.1-1.3s-2.6-2-4-1.9s-2.1,1.2-3.5,1.2c-1.3,0-4.6,0-4.6,0"/>
		<path class="st0" d="M213.5,449.7"/>
		<line class="st0" x1="213.9" y1="448.5" x2="213.9" y2="440.5"/>
		<path class="st0" d="M258.1,402.5l-3.7,1.5h-6.9h-6.2l-7.3,1l-2.1,4v1.1v1l-0.9,1.6l7.2-4c0,0,3.7-0.2,3.7,0.5s0,4.1,0,4.4
			c0,0.4,1.9,2.9,1.9,3.4s2.6,4,3.1,5.2s2.1,3.1,2.2,4.2c0.1,1.1-1.6,1.6,1.2,3c2.8,1.3,6.2,4.2,6.3,4.6s-0.1,1.1,0.2,2.3
			c0.4,1.2,0.7,1.4,1.2,2.6s3,2.8,3.4,3.7c0.4,1,0.7-0.6,0.6,1.4s-1.2,3-1.2,3l-5.2,4.1c0,0-1.7,2-3.7,0s-2.2-4.1-2.2-4.1l-1.6-4.7
			l-2.3-2.9l-1.5-1.8c0,0-1.5-4.3-1.9-4.7s-2.7-3.2-3.5-4.4c-0.9-1.2-0.6-4.9-0.6-4.9l6.2-1.9"/>
		<polyline class="st0" points="239,427.8 238.3,426.7 236.2,419.5 231.9,413.2 231.9,412.5 		"/>
		<line class="st0" x1="247.3" y1="411.1" x2="246.4" y2="403.6"/>
		<path class="st0" d="M243.4,416h4.6l2.3-2.9c0,0,2.6-0.2,3.2,0s5.3-0.1,5.3-0.1s1.4,0.6,1.4-1.9s-0.6-7-0.6-7s0.2-2.9-0.8-2.2
			s-1.1,0.7-1.1,0.7"/>
		<path class="st0" d="M247.3,440.8l-8.5,1.9l-7.2-0.9c0,0-2,0.2-1.3,4.7c0.7,4.4,0.8,5.8,0.8,5.8s0,4,2.8,2.5s3.8-3.3,3.8-3.3
			s2.2,1.3,4.1,1.7s5.1-0.8,5.1-0.8l2.2-0.2l2.6-1.6"/>
		<line class="st0" x1="244.5" y1="448.9" x2="243.7" y2="440.8"/>
		<line class="st0" x1="251" y1="433.5" x2="245" y2="437.9"/>
		<path class="st0" d="M274.9,414.5v10l-1,10.5l-1,4.3l1,7.7c0,0-2,0.2-1,3.2c1.1,3,5.6,3.8,5.6,3.8h6.2c0,0,2.8,2.5,1-3.3
			c-1.8-5.9-2.3-11-2.3-11l1.7-9l-0.4-10.6l-0.2-7.4l9.4,1.9c0,0,3.6-3,3.1-5.2s-2.3-6-2.3-6s0.5-1.2-2.5,0s-9.2,1.7-9.2,1.7
			l-14.6-1c0,0-1.3-4.2-3.1-2.2s-2.4,4.4-2,9.1s4.3,2.9,4.3,2.9l4.7-0.6L274.9,414.5z"/>
		<polyline class="st0" points="273.4,414 273.6,414 274.4,414 280.1,414 283.8,413.5 		"/>
		<line class="st0" x1="280.7" y1="410.5" x2="279.3" y2="404.4"/>
		<line class="st0" x1="281.4" y1="422" x2="274.4" y2="422"/>
		<line class="st0" x1="282" y1="436.3" x2="272.6" y2="436.6"/>
		<path class="st0" d="M294.9,447.5c0,0,0.2,4.9,5.6,5s6.7-1.1,6.7-1.1s-0.1-7.4,0-8.2s1.4-2.8,1.9-4s1.6-3.6,1.7-4.7
			s1.7-10.4,1.7-10.4l2.2-12.7l2.9-5.8c0,0-5.3-4.6-8.8-2.5s-5.5,4.6-5,6.6s-0.7,5.3-0.7,5.3l-2.9,2.6l0.6,9.7l-2.2,6.5l-0.6,6.4
			L294.9,447.5z"/>
		<polyline class="st0" points="306.8,435.6 303.7,433.8 298.6,433.9 		"/>
		<polyline class="st0" points="309.9,420.9 305.3,419 301.4,419 		"/>
		<path class="st0" d="M316.6,407.8l6,1.7c0,0-1.6,5.9-0.6,7.6s2.5,5.4,2.8,6c0.2,0.6-0.5,6.5,0,7s0.7,2.7,0.7,2.7l4.4-2.7
			c0,0,3.7,10.3,1.9,11.6s-7.4,0-7.4,0l-5.7,2.1l-1.1,0.4l-9.8,1.1"/>
		<path class="st0" d="M319.3,443.7l0.6,5.9v2.3l0.7-0.1c0,0-0.9,1.6,4.1,0.7c4.9-0.9,6.1-2.5,6.1-2.5l-2.3-7.1"/>
		<polyline class="st0" points="317.6,442.2 315.3,434 311,434 315.9,433 314.3,426.7 313.5,423.8 313.2,420.7 314.3,424.3 
			320.6,424.4 		"/>
		<line class="st0" x1="323.6" y1="433.1" x2="315.9" y2="432.9"/>
		<path class="st0" d="M339,404.4c4.2-0.9,5.2-1.6,5.2-1.6s2.6-3.1,4.3,0.8s1.2,5.3,1.2,5.3l-0.8,8.2l-0.1,5.6c0,0-0.6,2.4-0.7,3.9
			s-0.4,2.1-0.5,6.4c-0.1,4.2-1.9,8-1.9,8l1.6,2.9c0,0-1.2,3.5-1.2,4.8s-3.1,1.9-3.1,1.9l-7.7-1.9c0,0-0.8-5.4,0-6.6
			s1.2-6.4,1.2-6.4s0.2-7.6,0.5-8c0.2-0.4,1.1-6.8,1.1-7.1s0-4.4,0-4.4s1-2.4,1.2-3.2c0.2-0.8,0.6-2.9,0.6-3.2
			C339.7,409.2,339,404.4,339,404.4z"/>
		<line class="st0" x1="345.4" y1="420" x2="337.4" y2="420"/>
		<line class="st0" x1="343.8" y1="433.8" x2="335.8" y2="433.1"/>
		<path class="st0" d="M335.8,449.2l5.2,5.8c0,0-1,1.4,1.7,0c2.6-1.4,10.2-2.6,10.2-2.6l4.3-0.7l6.8-1.8h3.4c0,0,2.4,2.5,1.6-2.3
			s-0.8-6.6-0.8-6.6l-4.3-2.3c0,0-0.5,1.2-4.9,1.9s-8.5,0.7-8.9,0.7s-4.5,0.8-4.5,0.8"/>
		<polyline class="st0" points="354.6,449.1 352.5,442 351.8,441.1 		"/>
		<path class="st0" d="M360.9,439.5V426l-1.6-7.4l0.8-5.8l-0.8-6.6c0,0,5.4-4.4,6.5-3.5s4.7-1.8,4.9,3.2c0.2,4.9,0.2,10.6,0,11.2
			s-0.1,7.8,0.2,9.5c0.3,1.7,0.8,6.4,0.8,6.4s0.8,4.2,0.7,5s0,7.3,0,7.3s1.4,3.1,1.4,3.8s-0.6,0-0.6,0s-1.8,4.2-5,4.4
			c-3.2,0.2-5-0.7-5-0.7s-3.6-1.9-1.9-2.3"/>
		<line class="st0" x1="368.4" y1="435" x2="361.4" y2="435"/>
		<line class="st0" x1="367.4" y1="419" x2="359.4" y2="419"/>
		<path class="st0" d="M383.6,404.5l-3.7,1.8v4.8c0,0,0.2,4.5,0,5.3s-0.8,5.4-0.8,6.3s-0.6,1.9,0,3.8s0.4,6.5,0.6,9.9
			c0.2,3.5-0.4,5.6-0.4,5.6s-1.4,8.4-1.1,8.4s-0.1,2.8,1.2,3s2.1,0.3,3.2,0.7c1.1,0.4,2.6-0.4,4.5,0s2.9,0.7,3.6,0.1
			s1.4-1.4,1.8-1.8s-2.4-4.7-2.4-5s0.4-5.7,0.4-6.4s0.4-5,0.4-5v-8c0,0-0.1-6.5,0-7.5s0.2-6.5,0.2-6.5s-0.2-0.6-1.2-0.6
			s-2.6-0.2-3.6-0.5c-1-0.2-3.7-1.9-3.7-2.3S383.6,404.5,383.6,404.5z"/>
		<path class="st0" d="M383.4,404.4l3.7-2.9c1.7,0.4,4.7,1,4.7,1l4.1,2.6l6.4,1.4l-3.4,7.1"/>
		<polyline class="st0" points="390.3,442.2 392.4,439.7 396.6,436.6 392.8,432 395.3,429.5 396.6,426.9 395.4,423.4 390.7,428.1 		
			"/>
		<line class="st0" x1="387.4" y1="421" x2="379.4" y2="421"/>
		<line class="st0" x1="387.2" y1="436.1" x2="379.4" y2="436.5"/>
		<path class="st0" d="M395.4,423.4l6.8-4.2c0,0,4.4,0.1-0.7-0.6s-5.2-0.7-5.2-0.7l-1-0.8l-2.6-2.2l-1.9-0.8"/>
		<path class="st0" d="M404.6,418.7l3.9,3.8c0,0,0.8,1.2,2.6-2.3c1.8-3.5,2.8-4.8,2.8-4.8v-4.3c0,0,0.5-0.6-2.5-0.6
			s-5.9-0.5-5.9-0.5l-0.9-1.2c0,0-1.1-2.1-1.8-2.3"/>
		<path class="st0" d="M411.9,418.7l1.4,6.7l-8.4,2.6c0,0-3.8,0.6-0.9,4.7s4.6,5.7,4.6,5.7s0,2.3,0.7,3.7c0.7,1.5,2.6,3.4,3,4
			s3.5,1.9,1.9,3.7s-4.7,3.6-4.7,3.6l-4.9,1.1c0,0-1,0.9-1.7-2.9s-1.5-5.3-2.4-6.6s-4-3.5-4-6s-0.5-4.4-0.5-4.4"/>
		<polyline class="st0" points="405.4,438.5 400.3,441.1 399.1,443.5 		"/>
		<polyline class="st0" points="402.3,426.7 398.6,426 396.6,426.9 		"/>
		<path class="st0" d="M436.8,407.6c0,0-3.7,5.2-3.2,7.1s-0.2,3.9,0,5.8s2.2-6.2,0,2.9s-1.9,10.4-1.7,10.8s-1.2,1-1.6,1.4
			s-3.7,1.2-3.7,5.4c0,1,0,2.1,0.1,3c0,0.1,0.5,3.2,0.6,3.9c0.1,0.8,0.2,1.4,0.3,1.5c0.2,0.7,6,3.1-1,2.9s-7.7,0.4-8.4,0
			c-0.7-0.4-3.4-6.4-3.4-6.4s2.1-1.5,2.8-2.4c0.7-0.9,2.2-9.4,2.2-10.2s1.3-4.6,1.8-6.5s1.8-3.4,1.6-6.7c-0.2-3.4,0.4-4.4,0.4-4.4
			s2.1-4.6,2.4-4.9c0.3-0.4,0.4-5.5,0.7-6.4s-0.7-3.5,3.7-1.6s6.6,3.1,6.6,3.1l0.7,0.6c0,0,0.7,1.8,1.3,1.9c0.6,0.1,3.7,0.6,3.7,0.6
			s-0.1,8.2,0.6,10.3s-0.4,9.5,0,10.6s0.2,3.1,3,2.8c2.8-0.2,4.9-2.9,5.4-0.6s0.5,3.1,0.5,4.5c0,1.3,1.1,5.4-1.1,5.4
			s-5.4-0.1-5.4-0.1s-6.6,1.1-7.2,1.5s-4.9,0.8-7.1,0.8S429,445,429,445l-0.8,0.1l-2-0.2"/>
		<polyline class="st0" points="437.9,441.5 437.9,429.1 435.1,422.7 433.1,420.7 435,414.7 		"/>
		<line class="st0" x1="440.9" y1="422.7" x2="435" y2="424.3"/>
		<polyline class="st0" points="444,432.2 439.9,433 437.4,433 431.7,434.1 		"/>
		<path class="st0" d="M440.9,444.5v6.7c0,0-2.4,0.3,1.1,1.2c3.5,0.9,7.7-0.9,7.7-0.9l2.7-1.6c0,0,0.2,1-1.6-3.5
			c-1.8-4.5-1.9-5-1.9-5"/>
		<path class="st0" d="M467.7,436.6c-0.1-1.8-0.2-7.4-0.2-7.9l0.2-1.9l-0.6-2.5l0.1-3l-0.4-3.6v-1.4l0.5-2.3l0.6-0.1l-0.3-1.7
			l-0.1-1l0.4-6.4c-0.1-0.1-0.3-0.2-0.4-0.3c-1.4-0.5-6-2-7.2-1.5c-1.4,0.6-4,6.2-4,6.2s2.4-0.8,2.1,6.8s-0.7,9.4-0.7,10.8
			s-1.4,14.5-1.4,14.5s1.5,2.1,1.8,4.9s-1.8,4-1.8,4s1.9,3.5,6.4,3s6-1.9,6-1.9s0.5,0.1-0.1-3.9C468,443.4,467.9,438.5,467.7,436.6z
			"/>
		<path class="st0" d="M493.2,438.4c-0.7-5.2-1.3-5.2-1.3-5.2v-13.8l0.7-10.6l-10.5,2.2c0,0.5,0,1.1-0.1,1.6c0,0.3,0,0.5,0,0.8
			c0,0.1,0,0.2,0,0.3c0,0.7,0,1.4-0.1,2.1c0.2,1.8-0.3,3.5-0.3,5.3c0,0.2-0.1,0.4-0.1,0.5c0.1,1,0.2,2,0.2,3s0.1,2.9-1,3.4
			c-2.1,0.9-2.5-3.5-2.7-4.7c-0.1-0.6-0.2-1.3-0.3-2c-0.1-0.6-0.2-1-0.4-1.6c-0.2-0.5-0.2-1.1-0.3-1.6c-0.5-0.3-0.9-0.7-1.3-1.1
			c-0.5-0.6-0.9-1.2-1.3-1.9c-0.4-0.7-0.6-1.3-0.9-2c0-0.1-0.1-0.2-0.1-0.3l-5.3,1.1l0.3,2.1l0.3,1.7l1.6,11.1l1.4,6.1l3.3,4.2
			c0,0,1.7,4.8,1.7,7.1s3.1,5.4,3.1,5.4l2.6-0.7c0,0,0.6-0.1,0.8,1.6c0.2,1.7,4.3,0,4.3,0l4.4-0.8l0.6-3
			C492.5,448.8,493.9,443.7,493.2,438.4z"/>
		<line class="st0" x1="464.4" y1="419" x2="458.4" y2="419"/>
		<line class="st0" x1="465.4" y1="436" x2="456.4" y2="436"/>
		<path class="st0" d="M487.5,444.6c-0.4-0.4-1.1-3.7-1.7-6.1s-2.9-3.6-3.2-4.3s-1.8-4.9-1.8-4.9s-0.3-0.5-0.8-1.1
			c-0.9-0.1-1.4-1.2-1.7-2.4c-0.4-0.6-0.7-1.1-0.8-1.4c-0.5-1.1-0.5-2.3-0.5-5.3c0-0.3-0.1-0.6-0.1-0.9c-0.5-0.3-0.9-0.7-1.3-1.1
			c-0.5-0.6-0.9-1.2-1.3-1.9c0-0.1-0.1-0.2-0.1-0.3c-0.9-1.6-1.8-3.7-1.8-3.7l-3.4-5.8c-0.1-0.1-0.2-0.1-0.4-0.2l13.6,47.5
			c0,0,2.8-1,4.2-1.7s2.6-1.7,3.4-3.2C490.5,446.2,487.9,445,487.5,444.6z"/>
		<line class="st0" x1="480.1" y1="433.2" x2="472.6" y2="436.7"/>
		<line class="st0" x1="474.4" y1="419.5" x2="468.6" y2="420.7"/>
		<path class="st0" d="M489.9,418.7c-2.6,0.3-5.3,0.5-7.9,0.8"/>
		<line class="st0" x1="489.4" y1="435" x2="484.4" y2="435"/>
		<path class="st0" d="M491.6,405c0,0-3-0.8-4.9-1.8s-5.3,1.2-5.3,1.2l1.1,7.3l-0.8,12.6c0,0.1,0,0.2,0,0.3c0,0.6,0,1.4-0.2,2.1
			l-0.1,1.8l10.8-18.7l0.9-2.2L491.6,405z"/>
		<path class="st0" d="M514.9,410.8l-1.8-9l-10.3,1.2c0,0-5.8-0.2-5.6,2.3c0.1,2.5,1.1,7.9,1.1,7.9s4.8,2,6.1,0.6s7.1-1.1,7.1-1.1
			l13.7,1c0,0,4.7,1.3,5-3.8s-0.8-6.9-0.8-6.9s-5,0.3-5.2,0.9s-5.2-0.1-5.2-0.1l-1.6-0.3l-3.1-0.5"/>
		<path class="st0" d="M519.9,422.5v-7.4v-2.6c0,0,0.5,13.4,0,14.2s-1.3,4.8-0.6,6.6c0.6,1.9,0.9,4.7,0.8,6.2s-1.5,4.5-1.1,5.1
			s2.2,5.1,2.2,5.1s0.5,1.5,0,2.1s-1.1,1.2-2.3,1.7s-1.9,1.4-4.7,0.9c-2.9-0.5-3.5,0.1-3.9-0.9s-2.9-0.7-2.8-3.4s-0.6-2.4,0-5.4
			s0.5-6.2,0.6-7.9c0.1-1.6-0.3-5.5,0.1-6.4s0.6-4,0.6-4.8s-0.1-2.5-0.1-4.3s0-5.6,0-5.6l-0.1-3.4l0.3-1.6"/>
		<line class="st0" x1="517.4" y1="422" x2="509.4" y2="422"/>
		<line class="st0" x1="516.7" y1="435.9" x2="507.9" y2="436.7"/>
		<path class="st0" d="M537.6,402.8c0,0-4.5-1.3-1.8,11.4s-0.8,5.9-0.8,5.9v6.8c0,0,0.5,2,0.5,3.3s0.2,4.7,0.2,5.2s-1.2,3.3-0.7,4.2
			s1.1,5.1,1.3,5.4c0.2,0.4,0.4,1.7,0,2.1s-1.6,2.5-0.5,4.2s5.1,1.7,5.4,1.6c0.4,0,4.1-1.5,4.1-1.5s0.5,0.1,0-3.8s0-8,0.2-10.2
			c0.3-2.2,1.5-8,1.5-10.3s-1-7.1-1-8.6s0-6.8,0-7s1.5-2.3,1-3s0.2-2.4,0.1-2.8c-0.1-0.4-2.8-5.2-3.2-5.2s-2.1,1.7-2.7,2
			s-3.4,1.1-3.4,1.1l-0.8-1.1"/>
		<path class="st0" d="M545.4,415h1c0,0,1.5,0.6,1.9,0.6s1.4,0.5,3.7,0.9s7.3,0.2,9.1,0s1.4-0.1,3-0.8s1.3-2.3,1.2-4.9
			s0.2-3.5,0-5.6s-2.2-1.1-2.2-1.1s-1-0.1-3.1,0s-5.5,0.4-5.5,0.4l-3.1-0.7l-6.1,1"/>
		<line class="st0" x1="552.6" y1="411.7" x2="551.5" y2="403"/>
		<line class="st0" x1="543.4" y1="419" x2="535.4" y2="419"/>
		<line class="st0" x1="543.4" y1="436" x2="535.4" y2="436"/>
		<polyline class="st0" points="552,448.8 550.2,441 545.4,441 		"/>
		<path class="st0" d="M546.4,434h8.4l4.1-2.2v-3.6v-3.1v-1.7c0,0-2.3-0.2-3.5,0s-4.1,0.5-4.1,0.5l-2.9,0.1l-1.7,0.5"/>
		<path class="st0" d="M550,440.1l3.7,0.9h6.4h0.6h2.1l2.9,4.4c0,0-0.7,3.3-1,4.1c-0.3,0.7-1,3.5-1,3.5s-1.8,0.2-2.3,0
			s-2.5,0.5-3.3,0s-0.1-0.8-2.2-1s-1.4-0.6-4-0.6s-0.7-0.4-3.4-0.4s-2.7,0-2.7,0h-0.4"/>
	</g>
	<path class="st0" d="M72.3,404.3"/>
	<path class="st0" d="M34.2,423.6"/>
	<polyline class="st0" points="33.1,421.4 35.9,425 38.1,426.7 	"/>
	<polyline class="st0" points="33.9,421.4 30.2,420 25.9,418.3 	"/>
	<line class="st0" x1="37.4" y1="426.2" x2="38.7" y2="427.7"/>
	<path class="st0" d="M49,429.5l0.5-2.1l0.7-2v-2.3c0,0-0.2-0.3-2.6-0.6s-4.5-3.8-4.5-3.8l-2.8-4.2l-1.9-1.5l-1.3-1.8l-4-1.9
		l-3.7-4.9l-1.4-3.7h-2.7l-3.9,2.3l-1.8,1.4l-0.8,4.2l1.3,3l3.4,4l3.2,3.2l5.3,1.9l1.8,1.9l4.2,4.3l1.2,2.3c0,0,1,2,1.6,1.8
		s0.5,1.2,0.5,1.2"/>
	<polyline class="st0" points="79.1,448.8 87.3,447.3 88.4,439.8 89.5,432.8 87.9,420 87.9,411.5 87.6,406 85.9,404.7 81.5,406.5 
		79.1,412 77.7,416.6 78.5,426.7 79.2,432.1 79.6,437.2 78.5,439.2 76.7,440.1 72.3,440.4 69.5,441.2 65.7,440.6 61.4,438.7 	"/>
	<path class="st0" d="M64.2,432.1v-1.5V430v-4.5v-3.1l1.2-4.9v-3.1l-6.5-0.9h-3.5l-0.3,8.6l-1.1,4.2c0,0-1.9,5.9-1.6,6.9
		s-0.5,5.9-0.6,6.6s-2.1,4.1-2.1,4.1s-0.2,1.9,0,1.9s1.5,2.9,1.7,3.4c0.2,0.4,4.1,1.1,6.5,0.8c2.5-0.2,6.9-2.9,6.5-3.9
		c-0.4-1-2-8.2-2-8.2L64.2,432.1z"/>
	<polyline class="st0" points="63.8,420.9 64.2,429.1 62.9,434 62.4,436.9 61.9,437.8 	"/>
	<path class="st0" d="M99.4,415.5l0.6-2.5l-0.2-2.6l-0.4-3.9l-1,12.4v-14.6l1.9-1.3l3.8,0.8l6.1,0.5l-1-0.7l-1.8-1.3
		c0,0,2.9,2.1,3.6,2.4s2-0.2,2.6,1.9c0.6,2.1,1.8,5.5,1.8,5.5l3.1,7.2l0.9,2.2c0,0,0.9,2.3,1.3,3.4c0.4,1.1,1,3.6,1,3.6
		s0.3,1.9,0.6,2.5c0.3,0.6,3.3,3.2,3.3,3.2l-0.2,3.5l1,2.3c0,0,2,2.7,2.4,3.7s1.6,3.2,1.4,3.8s-3.7,2.4-3.7,2.4l-2.7,1.8
		c0,0,0.8,0-2.1,0c-2.9,0-3-0.8-3.3-2.9s0.7-3.9,0-4.3c-0.6-0.4-1.8-0.7-2.6-2.5c-0.8-1.8-1.4-2.8-1.5-4.2c-0.1-1.4,0-3.8,0-3.8
		l-1.6-3.2l-2.2-2.9l1-8l-1.1-5.4l-1.2-6.7"/>
	<path class="st0" d="M109.4,427"/>
	<path class="st0" d="M235.4,403.8l-0.8,2l-2.8,7.4l0.8,1.5l4.2,7.4l1,3.7l2.3,4.5c0,0,4.1,4.2,3.8,5c-0.3,0.7,1.8,4.2,1.8,4.2
		l2.1,1.5l-3,0.5c0,0-4.6-0.2-5,0s-4,1-5.3,0.8s-3.8,0-3.8,0s-1.7,1-1.7,2.7c0,1.6,1.6,4.3,1.8,5.8s0.7,3.7,0.9,3.9s0.4,1.3,2.1,0.2
		s2.6-3.3,3.1-3.6s2.4-1.3,2.8-0.8s1.9,1.5,2.4,1.6s1.6-0.2,2.5,0s2.3,0.5,3.4,0.3s3-1.2,3-1.3s2.6-1.3,2.6-1.3l2.2-0.7v1.3l2.3-2.3
		c0,0,2.1,0,2.9-1.1s0.6-4.5,0.6-4.5s-0.7,0.3-2.6-2.6s-4.2-8.4-5.3-8.8s-2.2-1.3-2.8-1.6s-1.4-0.1-2-1.2s-0.2-1.9-0.9-3.1
		s-2.7-5-2.7-5l-0.6-1.3l-0.6-1.4l2.5-1.5l1.4-2c0,0,0.6-2.3,2.1-2.3s7.8,1.8,7.8,1.8s2.8-0.7,2.3-1.7s-1.3-6.2-1.3-6.6
		c0-0.5,0.3-2.1-0.8-2.7s-3-0.9-3.6-0.7c-0.6,0.3-9.2,2.5-10,2.6s-10.3-1.5-11.9,1.4c-1.7,2.9-1.6,5.5-1.6,6.1
		c0,0.7,3.9,5.8,3.9,5.8"/>
	<path class="st0" d="M290.9,476.7"/>
	<path class="st0" d="M414.4,446.1"/>
</g>
</svg>
